<?xml version="1.0" encoding="utf-8"?>
<!-- Generator: Adobe Illustrator 23.0.1, SVG Export Plug-In . SVG Version: 6.00 Build 0)  -->
<svg version="1.1" id="Layer_1" xmlns="http://www.w3.org/2000/svg" xmlns:xlink="http://www.w3.org/1999/xlink" x="0px" y="0px"
	 viewBox="0 0 87 87" style="enable-background:new 0 0 87 87;" xml:space="preserve">
<g>
	<g>
		<path d="M72.6,83.8c-0.2-0.8-0.5-1.8-0.9-2.9c-0.3-1.1-0.7-2.4-1.2-3.8c-0.4-1.4-0.9-2.9-1.4-4.5s-1.1-3.2-1.6-5
			c-0.6-1.7-1.2-3.5-1.8-5.3c-0.6-1.8-1.3-3.6-1.9-5.4c-0.5-1.5-1.1-3.1-1.6-4.6h3.6v-2.9h-4.7c-0.4-1.1-0.8-2.1-1.2-3.2
			c-1.3-3.4-2.4-6.6-3.5-9.3c-1-2.7-1.9-5-2.5-6.5c-0.3-0.8-0.5-1.4-0.7-1.8c0.9-1.6,1.4-3.4,1.4-5.3c0-5.3-3.8-9.8-8.8-10.9V0H41
			v12.4c-5,1.1-8.8,5.6-8.8,10.9c0,2.1,0.6,4.2,1.7,5.9h-0.1c-0.2,0.4-0.4,1-0.7,1.8c-0.6,1.6-1.5,3.8-2.5,6.5s-2.2,5.9-3.5,9.3
			c-0.3,0.8-0.6,1.7-0.9,2.6H21v2.9h4c-0.6,1.7-1.2,3.5-1.8,5.2c-0.6,1.8-1.3,3.7-1.9,5.4c-0.6,1.8-1.2,3.6-1.8,5.3
			c-0.6,1.7-1.2,3.4-1.6,5c-0.5,1.6-1,3.1-1.4,4.5s-0.8,2.7-1.2,3.8c-0.3,1.1-0.6,2.1-0.9,2.9C13.9,86,13.7,87,13.7,87
			s0.5-0.8,1.4-2.3c0.5-0.7,1-1.6,1.6-2.6s1.3-2.2,2-3.4c0.7-1.3,1.5-2.6,2.4-4.1c0.9-1.4,1.7-3,2.6-4.6s1.8-3.2,2.7-4.9
			c0.9-1.7,1.8-3.4,2.8-5.1c1.5-2.6,2.9-5.3,4.2-7.9H42v5.3h2.7v-5.3h9.2c1.3,2.4,2.6,4.8,3.9,7.2c0.9,1.7,1.9,3.4,2.8,5.1
			c0.9,1.7,1.9,3.3,2.7,4.9c0.9,1.6,1.7,3.1,2.6,4.6c0.8,1.4,1.6,2.8,2.4,4.1c0.7,1.3,1.4,2.4,2,3.4s1.1,1.9,1.6,2.6
			c0.9,1.4,1.4,2.3,1.4,2.3S73.1,85.4,72.6,83.8z M43.4,15.3c4.4,0,8,3.6,8,8s-3.6,8-8,8s-8-3.6-8-8S39,15.3,43.4,15.3z M44.7,49.4
			v-4H42v4h-7c1.5-2.9,2.9-5.6,4.2-8c1.3-2.6,2.4-4.7,3.2-6.2c0.1-0.3,0.2-0.5,0.4-0.7c0.2,0,0.5,0,0.7,0c0.4,0,0.8,0,1.2-0.1
			c0,0,0,0.1,0.1,0.1c0.8,1.5,1.9,3.7,3.2,6.2s2.8,5.5,4.5,8.6L44.7,49.4L44.7,49.4z"/>
		<path d="M43.5,27.3c2.4,0,4.3-1.9,4.3-4.3s-1.9-4.3-4.3-4.3c-2.4,0-4.3,1.9-4.3,4.3S41.1,27.3,43.5,27.3z M43.5,19.5
			c1.9,0,3.5,1.6,3.5,3.5s-1.6,3.5-3.5,3.5S40,25,40,23C40,21.1,41.6,19.5,43.5,19.5z"/>
	</g>
</g>
</svg>
