<?xml version="1.0" encoding="utf-8"?>
<!-- Generator: Adobe Illustrator 23.0.1, SVG Export Plug-In . SVG Version: 6.00 Build 0)  -->
<svg version="1.1" id="Layer_1" xmlns="http://www.w3.org/2000/svg" xmlns:xlink="http://www.w3.org/1999/xlink" x="0px" y="0px"
	 viewBox="0 0 320 320" style="enable-background:new 0 0 320 320;" xml:space="preserve">
<g>
	<g>
		<path d="M266.8,307.8c-0.7-2.9-1.8-6.6-3.3-10.6c-1.1-4-2.6-8.8-4.4-13.9c-1.5-5.1-3.3-10.6-5.1-16.5c-1.8-5.9-4-11.7-5.9-18.4
			c-2.2-6.2-4.4-12.8-6.6-19.5c-2.2-6.6-4.8-13.2-7-19.8c-1.8-5.5-4-11.4-5.9-16.9h13.2v-10.6h-17.3c-1.5-4-2.9-7.7-4.4-11.7
			c-4.8-12.5-8.8-24.2-12.8-34.1c-3.7-9.9-7-18.4-9.2-23.9c-1.1-2.9-1.8-5.1-2.6-6.6c3.3-5.9,5.1-12.5,5.1-19.5
			c0-19.5-13.9-36-32.3-40V0.2h-17.6v45.5c-18.4,4-32.3,20.6-32.3,40c0,7.7,2.2,15.4,6.2,21.7h-0.4c-0.7,1.5-1.5,3.7-2.6,6.6
			c-2.2,5.9-5.5,13.9-9.2,23.9c-3.7,9.9-8.1,21.7-12.8,34.1c-1.1,2.9-2.2,6.2-3.3,9.5H77.4v10.6h14.7c-2.2,6.2-4.4,12.8-6.6,19.1
			c-2.2,6.6-4.8,13.6-7,19.8c-2.2,6.6-4.4,13.2-6.6,19.5c-2.2,6.2-4.4,12.5-5.9,18.4c-1.8,5.9-3.7,11.4-5.1,16.5
			c-1.5,5.1-2.9,9.9-4.4,13.9c-1.1,4-2.2,7.7-3.3,10.6c-1.8,5.9-2.6,9.5-2.6,9.5s1.8-2.9,5.1-8.4c1.8-2.6,3.7-5.9,5.9-9.5
			c2.2-3.7,4.8-8.1,7.3-12.5c2.6-4.8,5.5-9.5,8.8-15c3.3-5.1,6.2-11,9.5-16.9c3.3-5.9,6.6-11.7,9.9-18c3.3-6.2,6.6-12.5,10.3-18.7
			c5.5-9.5,10.6-19.5,15.4-29h31.6v19.5h9.9v-19.5h33.8c4.8,8.8,9.5,17.6,14.3,26.4c3.3,6.2,7,12.5,10.3,18.7c3.3,6.2,7,12.1,9.9,18
			c3.3,5.9,6.2,11.4,9.5,16.9c2.9,5.1,5.9,10.3,8.8,15c2.6,4.8,5.1,8.8,7.3,12.5c2.2,3.7,4,7,5.9,9.5c3.3,5.1,5.1,8.4,5.1,8.4
			S268.6,313.7,266.8,307.8z M159.6,56.4c16.1,0,29.4,13.2,29.4,29.4s-13.2,29.4-29.4,29.4s-29.4-13.2-29.4-29.4
			S143.5,56.4,159.6,56.4z M164.4,181.6v-14.7h-9.9v14.7h-25.7c5.5-10.6,10.6-20.6,15.4-29.4c4.8-9.5,8.8-17.3,11.7-22.8
			c0.4-1.1,0.7-1.8,1.5-2.6c0.7,0,1.8,0,2.6,0c1.5,0,2.9,0,4.4-0.4c0,0,0,0.4,0.4,0.4c2.9,5.5,7,13.6,11.7,22.8
			c4.8,9.2,10.3,20.2,16.5,31.6L164.4,181.6L164.4,181.6z"/>
		<path d="M160,100.4c8.8,0,15.8-7,15.8-15.8s-7-15.8-15.8-15.8c-8.8,0-15.8,7-15.8,15.8S151.2,100.4,160,100.4z M160,71.8
			c7,0,12.8,5.9,12.8,12.8S167,97.5,160,97.5s-12.8-5.5-12.8-12.8C147.2,77.7,153,71.8,160,71.8z"/>
	</g>
</g>
</svg>
